<svg xmlns="http://www.w3.org/2000/svg" viewBox="0 0 512 512"><rect width="512" height="512" rx="100" fill="#f6f1e4"/><rect x="82" y="87" width="356" height="346" rx="60" fill="#242b27" transform="rotate(-7 256 256)"/><rect x="68" y="72" width="356" height="346" rx="60" fill="#f2c64f" stroke="#242b27" stroke-width="12" transform="rotate(-7 256 256)"/><path d="M205 341 L197 393 M286 341 L308 393" fill="none" stroke="#242b27" stroke-width="16" stroke-linecap="round"/><path d="M164 390 Q189 375 207 388 L222 410 L159 416 Z M292 388 Q311 376 327 388 L352 410 L291 415 Z" fill="#266d62" stroke="#242b27" stroke-width="10"/><path d="M256 346 C224 310 150 246 150 201 C150 141 194 111 256 111 C318 111 362 141 362 201 C362 246 288 310 256 346Z" fill="#ef684e" stroke="#242b27" stroke-width="12" stroke-linejoin="round"/><ellipse cx="221" cy="193" rx="26" ry="33" fill="#f6f1e4" stroke="#242b27" stroke-width="8"/><ellipse cx="285" cy="184" rx="26" ry="33" fill="#f6f1e4" stroke="#242b27" stroke-width="8"/><circle cx="230" cy="198" r="10" fill="#242b27"/><circle cx="294" cy="189" r="10" fill="#242b27"/><path d="M228 245 Q256 272 290 235" fill="none" stroke="#242b27" stroke-width="10" stroke-linecap="round"/><path d="M103 153 L108 132 L117 151 L135 158 L115 166 L109 185 L102 166 L83 160 Z M398 281 L404 261 L411 282 L428 288 L410 296 L405 315 L397 296 L380 290 Z" fill="#f6f1e4" stroke="#242b27" stroke-width="6"/></svg>